<?xml version="1.0" encoding="UTF-8"?> <svg xmlns="http://www.w3.org/2000/svg" width="230" height="93" viewBox="0 0 230 93" fill="none"><path fill-rule="evenodd" clip-rule="evenodd" d="M59.8397 51.3113L71.8087 45.3395C72.4241 45.0322 72.9276 44.1511 72.9276 43.3819V31.9677C72.9276 31.198 72.4241 30.8199 71.8087 31.1271L59.8397 37.0996C59.2232 37.4074 58.7197 38.288 58.7197 39.0576V50.4713C58.7197 51.241 59.2232 51.6191 59.8397 51.3113Z" fill="white"></path><path fill-rule="evenodd" clip-rule="evenodd" d="M60.3068 6.683L72.2478 0.711125C72.8664 0.402242 74.0031 0.465001 74.7763 0.851694L86.1554 6.54295C86.9287 6.92964 87.0552 7.49806 86.4366 7.80745L74.4956 13.7794C73.8771 14.0887 72.7398 14.0255 71.9666 13.6388L60.5875 7.94761C59.8142 7.56143 59.6882 6.9924 60.3068 6.683Z" fill="white"></path><path fill-rule="evenodd" clip-rule="evenodd" d="M45.351 29.3245L57.2919 23.3525C57.9105 23.0432 59.0477 23.1058 59.821 23.4926L71.2002 29.1838C71.9734 29.5705 72.0994 30.139 71.4808 30.4484L59.5399 36.4203C58.9212 36.7297 57.7845 36.6664 57.0112 36.2797L45.6322 30.589C44.8589 30.2023 44.7324 29.6339 45.351 29.3245Z" fill="white"></path><path fill-rule="evenodd" clip-rule="evenodd" d="M74.8666 28.6575L86.8356 22.6855C87.451 22.3784 87.9544 21.4978 87.9544 20.7281V9.31388C87.9544 8.54418 87.451 8.16609 86.8356 8.47333L74.8666 14.4457C74.2501 14.7535 73.7466 15.6341 73.7466 16.4038V27.8175C73.7466 28.5872 74.2501 28.9653 74.8666 28.6575Z" fill="white"></path><path fill-rule="evenodd" clip-rule="evenodd" d="M44.954 28.6575L56.9225 22.6855C57.5384 22.3784 58.0419 21.4978 58.0419 20.7281V9.31388C58.0419 8.54418 57.5384 8.16609 56.9225 8.47333L44.954 14.4457C44.337 14.7535 43.8335 15.6341 43.8335 16.4038V27.8175C43.8335 28.5872 44.337 28.9653 44.954 28.6575Z" fill="white"></path><path fill-rule="evenodd" clip-rule="evenodd" d="M30.4394 6.683L42.3804 0.711125C42.9989 0.402242 44.1362 0.465001 44.9089 0.851694L56.2885 6.54295C57.0618 6.92964 57.1878 7.49806 56.5692 7.80745L44.6282 13.7794C44.0096 14.0887 42.8729 14.0255 42.0997 13.6388L30.7206 7.94761C29.9473 7.56143 29.8208 6.9924 30.4394 6.683Z" fill="white"></path><path fill-rule="evenodd" clip-rule="evenodd" d="M0.482594 6.683L12.4236 0.711125C13.0421 0.402242 14.1788 0.465001 14.9521 0.851694L26.3312 6.54295C27.1044 6.92964 27.231 7.49806 26.6124 7.80745L14.6714 13.7794C14.0528 14.0887 12.9156 14.0255 12.1429 13.6388L0.763259 7.94761C-0.0100479 7.56143 -0.136051 6.9924 0.482594 6.683Z" fill="white"></path><path fill-rule="evenodd" clip-rule="evenodd" d="M15.439 29.3245L27.3799 23.3525C27.9985 23.0432 29.1352 23.1058 29.9085 23.4926L41.2881 29.1838C42.0608 29.5705 42.1874 30.139 41.5688 30.4484L29.6278 36.4203C29.0091 36.7297 27.8725 36.6664 27.0993 36.2797L15.7196 30.589C14.9468 30.2023 14.8203 29.6339 15.439 29.3245Z" fill="white"></path><path fill-rule="evenodd" clip-rule="evenodd" d="M30.4394 51.9778L42.3804 46.0059C42.9989 45.6965 44.1362 45.7598 44.9089 46.1465L56.2885 51.8371C57.0618 52.2239 57.1878 52.7923 56.5692 53.1017L44.6282 59.0736C44.0096 59.383 42.8729 59.3202 42.0997 58.9335L30.7206 53.2424C29.9473 52.8556 29.8208 52.2872 30.4394 51.9778Z" fill="white"></path><path fill-rule="evenodd" clip-rule="evenodd" d="M71.8071 28.6575L59.8381 22.6855C59.2222 22.3784 58.7188 21.4978 58.7188 20.7281V9.31388C58.7188 8.54418 59.2222 8.16609 59.8381 8.47333L71.8071 14.4457C72.4236 14.7535 72.9271 15.6341 72.9271 16.4038V27.8175C72.9271 28.5872 72.4236 28.9653 71.8071 28.6575Z" fill="white"></path><path d="M90.2163 71.8066C90.2163 72.6763 90.0812 73.4319 89.8107 74.0745C89.5398 74.7171 89.1586 75.2482 88.666 75.6685C88.1733 76.0888 87.5845 76.403 86.8983 76.6107C86.2126 76.8184 85.4593 76.9222 84.6384 76.9222C84.2329 76.9222 83.7862 76.9049 83.2985 76.8714C82.8107 76.8373 82.3684 76.7724 81.9719 76.6756V66.9375C82.3684 66.8407 82.8107 66.7758 83.2985 66.7417C83.7862 66.7082 84.2329 66.6914 84.6384 66.6914C85.4593 66.6914 86.2126 66.7952 86.8983 67.003C87.5845 67.2107 88.1733 67.5244 88.666 67.9447C89.1586 68.3649 89.5398 68.8961 89.8107 69.5386C90.0812 70.1812 90.2163 70.9374 90.2163 71.8066ZM84.7542 75.6901C86.0871 75.6901 87.0821 75.3499 87.7386 74.6689C88.3957 73.9874 88.7238 73.0338 88.7238 71.8066C88.7238 70.5798 88.3957 69.6257 87.7386 68.9447C87.0821 68.2638 86.0871 67.923 84.7542 67.923C84.3583 67.923 84.0517 67.9279 83.8343 67.9376C83.6169 67.9473 83.465 67.9565 83.3779 67.9663V75.6468C83.465 75.6566 83.6169 75.6663 83.8343 75.6761C84.0517 75.6858 84.3583 75.6901 84.7542 75.6901ZM91.4606 73.0819C91.4606 72.415 91.5574 71.8331 91.7504 71.3354C91.9435 70.8384 92.1999 70.4251 92.5183 70.0968C92.8373 69.768 93.204 69.5218 93.6193 69.3574C94.0346 69.1935 94.4596 69.1113 94.8944 69.1113C95.9089 69.1113 96.6859 69.4278 97.2272 70.0606C97.768 70.6934 98.0389 71.6567 98.0389 72.9516C98.0389 73.0095 98.0389 73.0841 98.0389 73.176C98.0389 73.2681 98.034 73.3524 98.0243 73.4297H92.866C92.9239 74.2124 93.151 74.8063 93.5469 75.212C93.9432 75.6176 94.5613 75.821 95.4016 75.821C95.8748 75.821 96.2734 75.7799 96.5967 75.6977C96.9206 75.6155 97.1645 75.5359 97.3283 75.4586L97.5165 76.5891C97.3527 76.6756 97.065 76.7675 96.6545 76.8644C96.2441 76.9606 95.7779 77.0093 95.2567 77.0093C94.5997 77.0093 94.0325 76.9098 93.5544 76.7118C93.0763 76.5138 92.6827 76.2413 92.3733 75.8935C92.0646 75.5457 91.8354 75.1324 91.6855 74.6543C91.5358 74.1762 91.4606 73.6521 91.4606 73.0819ZM96.6329 72.3425C96.6427 71.7341 96.4907 71.2343 96.1765 70.8433C95.8629 70.4517 95.4302 70.2558 94.8798 70.2558C94.5711 70.2558 94.298 70.3164 94.0616 70.437C93.8248 70.5581 93.6242 70.7151 93.4603 70.9082C93.2959 71.1013 93.1677 71.3235 93.0763 71.5751C92.9844 71.826 92.9239 72.0819 92.8953 72.3425H96.6329ZM105.528 69.2996C105.151 70.7102 104.709 72.0629 104.202 73.3572C103.695 74.6516 103.205 75.8112 102.732 76.8351H101.515C101.041 75.8112 100.551 74.6516 100.044 73.3572C99.5368 72.0629 99.0949 70.7102 98.7186 69.2996H100.167C100.283 69.7728 100.421 70.278 100.58 70.814C100.739 71.3501 100.909 71.8817 101.087 72.408C101.266 72.9343 101.447 73.4444 101.631 73.9371C101.814 74.4299 101.988 74.869 102.152 75.2558C102.316 74.869 102.49 74.4299 102.674 73.9371C102.857 73.4444 103.038 72.9343 103.217 72.408C103.396 71.8817 103.565 71.3501 103.724 70.814C103.883 70.278 104.021 69.7728 104.137 69.2996H105.528ZM105.96 73.0819C105.96 72.415 106.057 71.8331 106.25 71.3354C106.443 70.8384 106.7 70.4251 107.018 70.0968C107.337 69.768 107.704 69.5218 108.119 69.3574C108.534 69.1935 108.959 69.1113 109.394 69.1113C110.409 69.1113 111.186 69.4278 111.727 70.0606C112.268 70.6934 112.538 71.6567 112.538 72.9516C112.538 73.0095 112.538 73.0841 112.538 73.176C112.538 73.2681 112.533 73.3524 112.524 73.4297H107.366C107.424 74.2124 107.651 74.8063 108.047 75.212C108.443 75.6176 109.061 75.821 109.901 75.821C110.375 75.821 110.773 75.7799 111.096 75.6977C111.42 75.6155 111.664 75.5359 111.828 75.4586L112.016 76.5891C111.852 76.6756 111.565 76.7675 111.154 76.8644C110.744 76.9606 110.278 77.0093 109.757 77.0093C109.099 77.0093 108.532 76.9098 108.054 76.7118C107.576 76.5138 107.182 76.2413 106.873 75.8935C106.564 75.5457 106.335 75.1324 106.185 74.6543C106.036 74.1762 105.96 73.6521 105.96 73.0819ZM111.133 72.3425C111.142 71.7341 110.99 71.2343 110.676 70.8433C110.363 70.4517 109.93 70.2558 109.38 70.2558C109.071 70.2558 108.798 70.3164 108.561 70.437C108.325 70.5581 108.124 70.7151 107.96 70.9082C107.796 71.1013 107.668 71.3235 107.576 71.5751C107.484 71.826 107.424 72.0819 107.395 72.3425H111.133ZM116.406 76.9801C115.575 76.9606 114.986 76.7822 114.638 76.4441C114.29 76.1055 114.117 75.5792 114.117 74.8642V65.8217L115.464 65.5896V74.6467C115.464 74.869 115.483 75.053 115.522 75.1978C115.56 75.3423 115.623 75.4586 115.71 75.5457C115.797 75.6322 115.913 75.6977 116.058 75.741C116.203 75.7848 116.381 75.821 116.594 75.8497L116.406 76.9801ZM124.416 73.0674C124.416 73.6661 124.329 74.2075 124.155 74.6905C123.981 75.1736 123.737 75.5889 123.424 75.9367C123.109 76.2845 122.735 76.5529 122.3 76.741C121.866 76.9293 121.392 77.0234 120.881 77.0234C120.369 77.0234 119.896 76.9293 119.461 76.741C119.026 76.5529 118.652 76.2845 118.338 75.9367C118.024 75.5889 117.78 75.1736 117.607 74.6905C117.432 74.2075 117.345 73.6661 117.345 73.0674C117.345 72.4783 117.432 71.9396 117.607 71.4517C117.78 70.9639 118.024 70.5458 118.338 70.198C118.652 69.8502 119.026 69.5825 119.461 69.3937C119.896 69.2054 120.369 69.1113 120.881 69.1113C121.392 69.1113 121.866 69.2054 122.3 69.3937C122.735 69.5825 123.109 69.8502 123.424 70.198C123.737 70.5458 123.981 70.9639 124.155 71.4517C124.329 71.9396 124.416 72.4783 124.416 73.0674ZM123.01 73.0674C123.01 72.2171 122.82 71.5432 122.438 71.0461C122.056 70.5484 121.537 70.2996 120.881 70.2996C120.224 70.2996 119.705 70.5484 119.323 71.0461C118.942 71.5432 118.751 72.2171 118.751 73.0674C118.751 73.9176 118.942 74.5915 119.323 75.0892C119.705 75.5863 120.224 75.8351 120.881 75.8351C121.537 75.8351 122.056 75.5863 122.438 75.0892C122.82 74.5915 123.01 73.9176 123.01 73.0674ZM131.209 73.0819C131.209 72.2025 130.992 71.5264 130.558 71.0531C130.123 70.5798 129.543 70.3429 128.819 70.3429C128.413 70.3429 128.096 70.3575 127.87 70.3868C127.642 70.4154 127.461 70.4495 127.326 70.4879V75.2412C127.49 75.3764 127.727 75.5067 128.036 75.6322C128.345 75.7577 128.683 75.821 129.05 75.821C129.437 75.821 129.768 75.7507 130.043 75.6105C130.319 75.4705 130.543 75.2774 130.717 75.0308C130.891 74.7846 131.016 74.4948 131.094 74.1615C131.171 73.8284 131.209 73.4681 131.209 73.0819ZM132.615 73.0819C132.615 73.6521 132.54 74.1783 132.39 74.6614C132.24 75.1443 132.021 75.5598 131.731 75.9075C131.441 76.2553 131.086 76.5257 130.666 76.7194C130.246 76.9125 129.765 77.0093 129.224 77.0093C128.789 77.0093 128.405 76.9509 128.072 76.8351C127.739 76.7194 127.49 76.6079 127.326 76.502V79.5163H125.979V69.5316C126.298 69.4543 126.696 69.3699 127.174 69.2779C127.652 69.1859 128.205 69.14 128.833 69.14C129.413 69.14 129.935 69.2319 130.398 69.4153C130.862 69.5992 131.258 69.8599 131.586 70.198C131.914 70.536 132.168 70.9492 132.346 71.4371C132.525 71.925 132.615 72.4735 132.615 73.0819ZM134.177 69.517C134.487 69.4396 134.895 69.3574 135.402 69.2709C135.909 69.1838 136.496 69.14 137.162 69.14C137.645 69.14 138.051 69.2054 138.379 69.3358C138.707 69.4662 138.983 69.6571 139.205 69.908C139.272 69.8599 139.379 69.7923 139.524 69.7052C139.669 69.6187 139.847 69.5337 140.06 69.4515C140.272 69.3699 140.509 69.2974 140.77 69.2347C141.03 69.1714 141.311 69.14 141.61 69.14C142.189 69.14 142.663 69.2249 143.03 69.3937C143.397 69.563 143.684 69.8021 143.892 70.1115C144.099 70.4202 144.239 70.7875 144.312 71.2127C144.384 71.6377 144.42 72.1013 144.42 72.6038V76.8351H143.073V72.8938C143.073 72.4491 143.051 72.0672 143.008 71.7486C142.965 71.4301 142.882 71.1639 142.762 70.9514C142.641 70.7388 142.477 70.582 142.269 70.4808C142.062 70.3792 141.793 70.3283 141.465 70.3283C141.011 70.3283 140.637 70.3889 140.342 70.5095C140.048 70.6306 139.847 70.7389 139.741 70.8357C139.818 71.0872 139.876 71.3625 139.915 71.6616C139.953 71.9613 139.973 72.275 139.973 72.6038V76.8351H138.626V72.8938C138.626 72.4491 138.601 72.0672 138.553 71.7486C138.505 71.4301 138.42 71.1639 138.3 70.9514C138.178 70.7388 138.015 70.582 137.807 70.4808C137.599 70.3792 137.336 70.3283 137.018 70.3283C136.882 70.3283 136.737 70.3332 136.583 70.3429C136.428 70.3527 136.281 70.3645 136.141 70.3792C136.001 70.3937 135.873 70.4105 135.757 70.43C135.641 70.4495 135.563 70.4635 135.525 70.4733V76.8351H134.177V69.517ZM145.897 73.0819C145.897 72.415 145.994 71.8331 146.187 71.3354C146.38 70.8384 146.636 70.4251 146.955 70.0968C147.274 69.768 147.641 69.5218 148.056 69.3574C148.471 69.1935 148.896 69.1113 149.331 69.1113C150.345 69.1113 151.123 69.4278 151.664 70.0606C152.205 70.6934 152.475 71.6567 152.475 72.9516C152.475 73.0095 152.475 73.0841 152.475 73.176C152.475 73.2681 152.47 73.3524 152.46 73.4297H147.303C147.361 74.2124 147.588 74.8063 147.983 75.212C148.38 75.6176 148.998 75.821 149.838 75.821C150.311 75.821 150.71 75.7799 151.033 75.6977C151.357 75.6155 151.601 75.5359 151.765 75.4586L151.953 76.5891C151.789 76.6756 151.502 76.7675 151.091 76.8644C150.681 76.9606 150.215 77.0093 149.693 77.0093C149.036 77.0093 148.469 76.9098 147.991 76.7118C147.513 76.5138 147.119 76.2413 146.81 75.8935C146.501 75.5457 146.272 75.1324 146.122 74.6543C145.972 74.1762 145.897 73.6521 145.897 73.0819ZM151.07 72.3425C151.079 71.7341 150.927 71.2343 150.613 70.8433C150.299 70.4517 149.867 70.2558 149.316 70.2558C149.008 70.2558 148.735 70.3164 148.498 70.437C148.261 70.5581 148.061 70.7151 147.897 70.9082C147.733 71.1013 147.604 71.3235 147.513 71.5751C147.421 71.826 147.361 72.0819 147.332 72.3425H151.07ZM154.082 69.517C154.391 69.4396 154.801 69.3574 155.313 69.2709C155.825 69.1838 156.414 69.14 157.081 69.14C157.68 69.14 158.177 69.2249 158.573 69.3937C158.969 69.563 159.285 69.7993 159.522 70.1039C159.758 70.4084 159.925 70.7729 160.022 71.198C160.118 71.6232 160.167 72.0916 160.167 72.6038V76.8351H158.819V72.8938C158.819 72.4297 158.788 72.0338 158.725 71.7054C158.662 71.3766 158.558 71.111 158.414 70.9082C158.269 70.7053 158.076 70.5581 157.834 70.4662C157.593 70.3743 157.293 70.3283 156.936 70.3283C156.791 70.3283 156.642 70.3332 156.487 70.3429C156.332 70.3527 156.185 70.3645 156.045 70.3792C155.905 70.3937 155.779 70.4105 155.668 70.43C155.557 70.4495 155.477 70.4635 155.429 70.4733V76.8351H154.082V69.517ZM163.324 69.2996H166.178V70.43H163.324V73.9078C163.324 74.2849 163.353 74.5965 163.411 74.8426C163.469 75.0892 163.556 75.2823 163.672 75.4224C163.788 75.5624 163.933 75.6614 164.107 75.7193C164.281 75.7772 164.483 75.8064 164.715 75.8064C165.12 75.8064 165.447 75.7604 165.693 75.6685C165.939 75.5771 166.111 75.5116 166.207 75.4732L166.468 76.5891C166.333 76.6567 166.096 76.741 165.758 76.8422C165.42 76.9438 165.034 76.9947 164.599 76.9947C164.087 76.9947 163.665 76.9293 163.332 76.7989C162.998 76.6685 162.73 76.4728 162.528 76.212C162.325 75.9514 162.182 75.6301 162.1 75.2482C162.018 74.8668 161.977 74.425 161.977 73.9225V67.1982L163.324 66.9667V69.2996ZM177.383 73.0674C177.383 73.6661 177.296 74.2075 177.123 74.6905C176.948 75.1736 176.704 75.5889 176.39 75.9367C176.076 76.2845 175.702 76.5529 175.267 76.741C174.832 76.9293 174.359 77.0234 173.848 77.0234C173.336 77.0234 172.862 76.9293 172.428 76.741C171.993 76.5529 171.619 76.2845 171.305 75.9367C170.991 75.5889 170.747 75.1736 170.573 74.6905C170.399 74.2075 170.312 73.6661 170.312 73.0674C170.312 72.4783 170.399 71.9396 170.573 71.4517C170.747 70.9639 170.991 70.5458 171.305 70.198C171.619 69.8502 171.993 69.5825 172.428 69.3937C172.862 69.2054 173.336 69.1113 173.848 69.1113C174.359 69.1113 174.832 69.2054 175.267 69.3937C175.702 69.5825 176.076 69.8502 176.39 70.198C176.704 70.5458 176.948 70.9639 177.123 71.4517C177.296 71.9396 177.383 72.4783 177.383 73.0674ZM175.977 73.0674C175.977 72.2171 175.786 71.5432 175.405 71.0461C175.023 70.5484 174.504 70.2996 173.848 70.2996C173.191 70.2996 172.672 70.5484 172.29 71.0461C171.909 71.5432 171.718 72.2171 171.718 73.0674C171.718 73.9176 171.909 74.5915 172.29 75.0892C172.672 75.5863 173.191 75.8351 173.848 75.8351C174.504 75.8351 175.023 75.5863 175.405 75.0892C175.786 74.5915 175.977 73.9176 175.977 73.0674ZM181.887 65.5896C182.283 65.5896 182.624 65.6189 182.909 65.6767C183.194 65.7346 183.394 65.7881 183.51 65.8362L183.263 66.9954C183.148 66.9375 182.983 66.8817 182.771 66.8288C182.558 66.7758 182.298 66.7493 181.989 66.7493C181.361 66.7493 180.921 66.9208 180.67 67.2636C180.419 67.6066 180.294 68.0679 180.294 68.6478V69.2996H183.191V70.43H180.294V76.8351H178.946V68.6185C178.946 67.6526 179.183 66.9061 179.656 66.3799C180.129 65.853 180.873 65.5896 181.887 65.5896ZM86.2899 92.4851C85.5847 92.4851 84.9423 92.3694 84.3632 92.1373C83.7836 91.9053 83.286 91.5672 82.8707 91.1226C82.4555 90.6786 82.1342 90.1301 81.9072 89.4783C81.68 88.826 81.5664 88.0796 81.5664 87.2391C81.5664 86.3985 81.6946 85.6521 81.9503 85.0003C82.2066 84.348 82.5522 83.8001 82.987 83.3556C83.4212 82.9109 83.9284 82.5729 84.5081 82.3409C85.0873 82.1093 85.7059 81.9931 86.3623 81.9931C86.7777 81.9931 87.1519 82.0222 87.485 82.0801C87.8187 82.1379 88.1084 82.2056 88.3545 82.2829C88.6006 82.3603 88.8012 82.4376 88.9559 82.515C89.1105 82.5923 89.2165 82.6502 89.2743 82.6886L88.8688 83.8482C88.7817 83.7904 88.6563 83.7276 88.4924 83.66C88.328 83.5925 88.142 83.5243 87.9343 83.4567C87.7267 83.389 87.4996 83.3339 87.2536 83.29C87.007 83.2468 86.7583 83.2251 86.5073 83.2251C85.9762 83.2251 85.4977 83.3165 85.0733 83.5004C84.6482 83.6838 84.2859 83.9494 83.9863 84.2972C83.6867 84.6449 83.4574 85.068 83.2985 85.5656C83.1389 86.0632 83.0595 86.6208 83.0595 87.2391C83.0595 87.8384 83.1292 88.3841 83.2692 88.8769C83.4093 89.3696 83.6192 89.792 83.8992 90.1447C84.1794 90.4973 84.5297 90.77 84.9499 90.9636C85.3701 91.1567 85.86 91.2535 86.4203 91.2535C87.0675 91.2535 87.6034 91.1859 88.0284 91.0501C88.4535 90.915 88.772 90.7944 88.9845 90.6883L89.3468 91.8474C89.2792 91.8956 89.1586 91.9562 88.9845 92.0286C88.8109 92.101 88.5935 92.1709 88.3329 92.2384C88.0722 92.3061 87.7678 92.3645 87.4201 92.4126C87.0724 92.4608 86.6955 92.4851 86.2899 92.4851ZM92.7935 92.4126C91.963 92.3931 91.3735 92.2147 91.0258 91.8766C90.6781 91.538 90.5045 91.0117 90.5045 90.2967V81.2542L91.8515 81.0221V90.0792C91.8515 90.3016 91.8711 90.4855 91.91 90.6304C91.9484 90.7748 92.0111 90.8911 92.0981 90.9782C92.1852 91.0647 92.301 91.1302 92.4458 91.1735C92.5908 91.2173 92.7693 91.2535 92.9818 91.2822L92.7935 92.4126ZM100.804 88.4999C100.804 89.0986 100.717 89.64 100.544 90.123C100.37 90.6061 100.126 91.0214 99.812 91.3692C99.4978 91.717 99.1236 91.9853 98.6889 92.1735C98.2541 92.3618 97.781 92.4559 97.2689 92.4559C96.7568 92.4559 96.2836 92.3618 95.8488 92.1735C95.4141 91.9853 95.0398 91.717 94.7262 91.3692C94.412 91.0214 94.1682 90.6061 93.9946 90.123C93.8205 89.64 93.7334 89.0986 93.7334 88.4999C93.7334 87.9109 93.8205 87.3722 93.9946 86.8842C94.1682 86.3964 94.412 85.9782 94.7262 85.6305C95.0398 85.2827 95.4141 85.0149 95.8488 84.8262C96.2836 84.638 96.7568 84.5438 97.2689 84.5438C97.781 84.5438 98.2541 84.638 98.6889 84.8262C99.1236 85.0149 99.4978 85.2827 99.812 85.6305C100.126 85.9782 100.37 86.3964 100.544 86.8842C100.717 87.3722 100.804 87.9109 100.804 88.4999ZM99.3988 88.4999C99.3988 87.6496 99.208 86.9756 98.8267 86.4786C98.445 85.981 97.9259 85.7321 97.2689 85.7321C96.6118 85.7321 96.0927 85.981 95.7109 86.4786C95.3297 86.9756 95.1388 87.6496 95.1388 88.4999C95.1388 89.3502 95.3297 90.024 95.7109 90.5217C96.0927 91.0188 96.6118 91.2676 97.2689 91.2676C97.9259 91.2676 98.445 91.0188 98.8267 90.5217C99.208 90.024 99.3988 89.3502 99.3988 88.4999ZM108.365 92.0503C108.056 92.1276 107.648 92.2098 107.141 92.2969C106.634 92.3834 106.047 92.4272 105.381 92.4272C104.801 92.4272 104.313 92.3423 103.917 92.1735C103.522 92.0043 103.203 91.7652 102.961 91.4563C102.72 91.1469 102.546 90.7824 102.44 90.3621C102.333 89.9418 102.281 89.4756 102.281 88.9634V84.7321H103.628V88.674C103.628 89.5914 103.773 90.2486 104.062 90.6445C104.352 91.041 104.84 91.2389 105.526 91.2389C105.671 91.2389 105.82 91.2341 105.975 91.2243C106.129 91.2145 106.274 91.2026 106.409 91.1881C106.544 91.1735 106.668 91.1588 106.779 91.1448C106.89 91.1302 106.969 91.1135 107.018 91.0939V84.7321H108.365V92.0503ZM115.217 86.326C115.053 86.1908 114.816 86.0605 114.508 85.935C114.198 85.8095 113.86 85.7468 113.493 85.7468C113.106 85.7468 112.776 85.8166 112.5 85.9566C112.225 86.0967 112.001 86.2898 111.826 86.5364C111.653 86.7826 111.527 87.0752 111.45 87.4132C111.373 87.7513 111.334 88.1137 111.334 88.4999C111.334 89.3788 111.551 90.0576 111.986 90.5357C112.421 91.0139 113 91.2535 113.725 91.2535C114.092 91.2535 114.399 91.2362 114.645 91.2026C114.891 91.1685 115.082 91.1323 115.217 91.0939V86.326ZM115.217 81.2542L116.565 81.0221V92.0503C116.256 92.1373 115.859 92.2244 115.377 92.3109C114.894 92.398 114.338 92.4419 113.71 92.4419C113.13 92.4419 112.609 92.3499 112.146 92.166C111.682 91.9826 111.286 91.7219 110.957 91.3839C110.629 91.0458 110.375 90.6326 110.197 90.1447C110.018 89.6568 109.928 89.1083 109.928 88.4999C109.928 87.92 110.004 87.3889 110.153 86.9059C110.303 86.4229 110.523 86.0074 110.813 85.6596C111.102 85.3119 111.457 85.0415 111.877 84.8479C112.297 84.6548 112.778 84.5584 113.319 84.5584C113.754 84.5584 114.138 84.6163 114.471 84.7321C114.804 84.8479 115.053 84.9592 115.217 85.0652V81.2542ZM121.814 82.2251H123.22V92.2677H121.814V82.2251ZM125.29 84.9495C125.599 84.8721 126.009 84.7899 126.521 84.7034C127.033 84.6163 127.622 84.5725 128.289 84.5725C128.888 84.5725 129.386 84.6574 129.782 84.8262C130.178 84.9955 130.494 85.2319 130.731 85.5364C130.967 85.8409 131.134 86.2054 131.23 86.6306C131.327 87.0557 131.375 87.5241 131.375 88.0363V92.2677H130.028V88.3263C130.028 87.8622 129.996 87.4663 129.934 87.1379C129.871 86.8091 129.767 86.5435 129.622 86.3407C129.477 86.1379 129.284 85.9907 129.042 85.8988C128.801 85.8068 128.501 85.7608 128.144 85.7608C127.999 85.7608 127.85 85.7657 127.695 85.7754C127.54 85.7852 127.393 85.797 127.253 85.8117C127.113 85.8263 126.987 85.843 126.876 85.8626C126.765 85.882 126.685 85.896 126.637 85.9058V92.2677H125.29V84.9495ZM136.213 81.0221C136.609 81.0221 136.949 81.0514 137.234 81.1092C137.519 81.1671 137.72 81.2206 137.836 81.2688L137.589 82.4279C137.473 82.37 137.309 82.3143 137.096 82.2613C136.884 82.2083 136.623 82.1818 136.315 82.1818C135.687 82.1818 135.247 82.3532 134.996 82.6962C134.745 83.0391 134.619 83.5004 134.619 84.0803V84.7321H137.517V85.8626H134.619V92.2677H133.272V84.0511C133.272 83.0851 133.509 82.3386 133.982 81.8124C134.455 81.2855 135.199 81.0221 136.213 81.0221ZM141.311 84.5725C141.427 84.5725 141.56 84.58 141.71 84.5947C141.859 84.6087 142.007 84.6283 142.151 84.6525C142.296 84.6764 142.429 84.7007 142.55 84.725C142.671 84.7489 142.76 84.771 142.818 84.7899L142.586 85.9637C142.48 85.9252 142.304 85.8792 142.057 85.8263C141.811 85.7733 141.495 85.7468 141.108 85.7468C140.857 85.7468 140.609 85.7733 140.363 85.8263C140.116 85.8792 139.954 85.9155 139.877 85.935V92.2677H138.529V85.0512C138.848 84.9349 139.244 84.8262 139.718 84.725C140.191 84.6233 140.722 84.5725 141.311 84.5725ZM146.338 91.2967C146.656 91.2967 146.939 91.2898 147.185 91.2751C147.432 91.2606 147.637 91.2341 147.801 91.1951V88.9493C147.704 88.9007 147.548 88.8596 147.33 88.826C147.113 88.792 146.85 88.7752 146.541 88.7752C146.338 88.7752 146.123 88.7897 145.896 88.819C145.669 88.8477 145.461 88.9082 145.273 88.9996C145.084 89.0916 144.927 89.2171 144.802 89.3767C144.676 89.5362 144.613 89.7461 144.613 90.0067C144.613 90.4903 144.768 90.8257 145.077 91.0139C145.386 91.2026 145.806 91.2967 146.338 91.2967ZM146.222 84.5438C146.763 84.5438 147.219 84.6136 147.591 84.7537C147.963 84.8938 148.262 85.0917 148.489 85.3481C148.716 85.6039 148.878 85.9085 148.975 86.2611C149.071 86.6138 149.12 87.0027 149.12 87.4272V92.1373C149.003 92.1568 148.842 92.1833 148.634 92.2168C148.426 92.2509 148.192 92.2822 147.932 92.3109C147.671 92.3401 147.388 92.3666 147.084 92.391C146.78 92.4148 146.478 92.4272 146.178 92.4272C145.753 92.4272 145.362 92.3834 145.004 92.2969C144.647 92.2098 144.338 92.0719 144.077 91.8837C143.816 91.6954 143.614 91.4466 143.469 91.1372C143.324 90.8283 143.251 90.4563 143.251 90.0214C143.251 89.606 143.336 89.2485 143.505 88.9493C143.674 88.6497 143.903 88.408 144.193 88.2246C144.483 88.0412 144.821 87.906 145.208 87.8189C145.594 87.7318 146 87.6885 146.425 87.6885C146.56 87.6885 146.7 87.6956 146.845 87.7102C146.99 87.7248 147.127 87.7437 147.258 87.7681C147.388 87.7924 147.502 87.814 147.598 87.8335C147.695 87.8524 147.762 87.8671 147.801 87.8768V87.4997C147.801 87.278 147.777 87.0579 147.729 86.8404C147.68 86.6236 147.594 86.43 147.468 86.2611C147.342 86.0919 147.171 85.9566 146.953 85.8555C146.736 85.7538 146.454 85.7029 146.106 85.7029C145.661 85.7029 145.273 85.7343 144.939 85.797C144.606 85.8598 144.357 85.9252 144.193 85.9929L144.034 84.877C144.207 84.7996 144.497 84.725 144.903 84.6525C145.309 84.58 145.748 84.5438 146.222 84.5438ZM152.769 91.2967C153.319 91.2967 153.727 91.2243 153.993 91.0794C154.258 90.9344 154.391 90.7023 154.391 90.3838C154.391 90.0555 154.261 89.7942 154 89.6011C153.739 89.408 153.309 89.1906 152.711 88.9493C152.421 88.833 152.143 88.7146 151.877 88.594C151.612 88.4734 151.383 88.3311 151.19 88.1666C150.997 88.0022 150.842 87.8043 150.726 87.5722C150.61 87.3407 150.552 87.0557 150.552 86.7176C150.552 86.0507 150.798 85.5217 151.291 85.1307C151.783 84.7396 152.455 84.5438 153.304 84.5438C153.517 84.5438 153.729 84.5558 153.942 84.58C154.155 84.6039 154.352 84.6331 154.536 84.6672C154.72 84.7007 154.881 84.737 155.021 84.7759C155.161 84.8143 155.27 84.8479 155.347 84.877L155.101 86.0361C154.957 85.9593 154.729 85.8792 154.42 85.797C154.111 85.7154 153.739 85.6743 153.304 85.6743C152.928 85.6743 152.6 85.7489 152.32 85.8988C152.04 86.0486 151.9 86.2828 151.9 86.6013C151.9 86.7658 151.931 86.9107 151.994 87.0363C152.056 87.1617 152.153 87.2753 152.284 87.377C152.414 87.4781 152.575 87.5722 152.769 87.6593C152.962 87.7464 153.194 87.8384 153.464 87.9347C153.821 88.0699 154.141 88.2029 154.42 88.3333C154.7 88.4636 154.94 88.6156 155.138 88.7897C155.336 88.9634 155.488 89.1738 155.594 89.4199C155.7 89.6665 155.753 89.9683 155.753 90.3259C155.753 91.0214 155.495 91.5478 154.978 91.9053C154.461 92.2628 153.725 92.4419 152.769 92.4419C152.102 92.4419 151.581 92.3862 151.204 92.2747C150.827 92.1638 150.572 92.0794 150.436 92.0216L150.682 90.8619C150.837 90.9198 151.083 91.0069 151.422 91.1226C151.759 91.2389 152.208 91.2967 152.769 91.2967ZM158.403 84.7321H161.257V85.8626H158.403V89.3404C158.403 89.7174 158.432 90.029 158.49 90.2751C158.548 90.5217 158.635 90.7148 158.75 90.8549C158.867 90.995 159.012 91.0939 159.185 91.1519C159.359 91.2097 159.562 91.2389 159.793 91.2389C160.199 91.2389 160.525 91.1929 160.772 91.101C161.018 91.0096 161.19 90.9441 161.287 90.9057L161.547 92.0216C161.412 92.0892 161.175 92.1735 160.837 92.2747C160.499 92.3763 160.113 92.4272 159.678 92.4272C159.166 92.4272 158.743 92.3618 158.41 92.2315C158.077 92.101 157.809 91.9053 157.606 91.6445C157.403 91.3839 157.261 91.0626 157.178 90.6807C157.097 90.2994 157.056 89.8575 157.056 89.355V82.6307L158.403 82.3992V84.7321ZM165.414 84.5725C165.53 84.5725 165.662 84.58 165.812 84.5947C165.962 84.6087 166.109 84.6283 166.254 84.6525C166.399 84.6764 166.532 84.7007 166.652 84.725C166.773 84.7489 166.863 84.771 166.921 84.7899L166.689 85.9637C166.583 85.9252 166.406 85.8792 166.16 85.8263C165.914 85.7733 165.597 85.7468 165.211 85.7468C164.96 85.7468 164.711 85.7733 164.465 85.8263C164.218 85.8792 164.057 85.9155 163.979 85.935V92.2677H162.632V85.0512C162.951 84.9349 163.347 84.8262 163.82 84.725C164.294 84.6233 164.825 84.5725 165.414 84.5725ZM173.888 92.0503C173.579 92.1276 173.171 92.2098 172.663 92.2969C172.157 92.3834 171.57 92.4272 170.903 92.4272C170.324 92.4272 169.836 92.3423 169.44 92.1735C169.044 92.0043 168.725 91.7652 168.484 91.4563C168.242 91.1469 168.069 90.7824 167.962 90.3621C167.856 89.9418 167.803 89.4756 167.803 88.9634V84.7321H169.15V88.674C169.15 89.5914 169.295 90.2486 169.585 90.6445C169.875 91.041 170.363 91.2389 171.048 91.2389C171.193 91.2389 171.343 91.2341 171.498 91.2243C171.652 91.2145 171.797 91.2026 171.932 91.1881C172.067 91.1735 172.19 91.1588 172.302 91.1448C172.413 91.1302 172.492 91.1135 172.541 91.0939V84.7321H173.888V92.0503ZM179.146 92.4419C178.538 92.4419 178.004 92.345 177.545 92.1519C177.086 91.9583 176.7 91.6878 176.385 91.34C176.072 90.9923 175.838 90.5796 175.683 90.1014C175.528 89.6227 175.451 89.0943 175.451 88.5144C175.451 87.9346 175.536 87.4035 175.705 86.9205C175.874 86.4374 176.113 86.0194 176.422 85.6667C176.731 85.3141 177.111 85.0387 177.56 84.8408C178.009 84.6428 178.509 84.5438 179.06 84.5438C179.397 84.5438 179.735 84.5725 180.073 84.6309C180.411 84.6888 180.735 84.7802 181.044 84.9062L180.74 86.0507C180.537 85.9545 180.303 85.8771 180.037 85.8193C179.772 85.7608 179.489 85.7321 179.19 85.7321C178.437 85.7321 177.859 85.9685 177.458 86.4423C177.058 86.9156 176.857 87.6063 176.857 88.5144C176.857 88.9202 176.903 89.2922 176.995 89.6303C177.086 89.9683 177.231 90.2583 177.429 90.4995C177.628 90.7413 177.881 90.9273 178.19 91.0577C178.499 91.1881 178.876 91.2535 179.32 91.2535C179.678 91.2535 180.001 91.2194 180.291 91.1519C180.581 91.0842 180.808 91.0117 180.972 90.9344L181.16 92.0648C181.083 92.113 180.972 92.159 180.827 92.2022C180.682 92.246 180.518 92.2844 180.334 92.3185C180.151 92.3521 179.955 92.3813 179.747 92.4056C179.54 92.4294 179.34 92.4419 179.146 92.4419Z" fill="white"></path><path d="M183.535 84.7321H186.389V85.8626H183.535V89.3404C183.535 89.7174 183.564 90.029 183.622 90.2751C183.679 90.5217 183.766 90.7148 183.882 90.8549C183.999 90.995 184.143 91.0939 184.317 91.1519C184.491 91.2097 184.694 91.2389 184.925 91.2389C185.331 91.2389 185.657 91.1929 185.904 91.101C186.15 91.0096 186.321 90.9441 186.418 90.9057L186.678 92.0216C186.543 92.0892 186.306 92.1735 185.968 92.2747C185.63 92.3763 185.244 92.4272 184.81 92.4272C184.297 92.4272 183.875 92.3618 183.542 92.2315C183.208 92.101 182.941 91.9053 182.738 91.6445C182.535 91.3839 182.392 91.0626 182.31 90.6807C182.229 90.2995 182.188 89.8575 182.188 89.355V82.6307L183.535 82.3992V84.7321ZM193.762 92.0503C193.453 92.1276 193.045 92.2098 192.537 92.2969C192.03 92.3834 191.444 92.4272 190.777 92.4272C190.197 92.4272 189.709 92.3424 189.314 92.1735C188.918 92.0043 188.599 91.7652 188.357 91.4564C188.116 91.147 187.942 90.7824 187.836 90.3621C187.73 89.9418 187.677 89.4756 187.677 88.9634V84.7321H189.024V88.6741C189.024 89.5914 189.169 90.2486 189.458 90.6445C189.748 91.041 190.236 91.2389 190.922 91.2389C191.067 91.2389 191.216 91.2341 191.371 91.2244C191.525 91.2145 191.67 91.2027 191.805 91.1881C191.94 91.1735 192.064 91.1588 192.175 91.1448C192.286 91.1302 192.366 91.1135 192.414 91.0939V84.7321H193.762V92.0503ZM198.527 84.5725C198.643 84.5725 198.776 84.58 198.925 84.5947C199.075 84.6087 199.222 84.6283 199.367 84.6525C199.512 84.6764 199.645 84.7008 199.766 84.725C199.886 84.7489 199.976 84.771 200.034 84.7899L199.802 85.9637C199.696 85.9252 199.52 85.8793 199.273 85.8263C199.027 85.7733 198.711 85.7468 198.324 85.7468C198.073 85.7468 197.824 85.7733 197.578 85.8263C197.332 85.8793 197.17 85.9155 197.093 85.9351V92.2677H195.745V85.0512C196.064 84.9349 196.46 84.8262 196.933 84.725C197.407 84.6234 197.938 84.5725 198.527 84.5725ZM200.583 88.5144C200.583 87.8475 200.68 87.2656 200.873 86.7679C201.066 86.2709 201.322 85.8577 201.641 85.5293C201.96 85.2005 202.326 84.9543 202.742 84.7899C203.157 84.626 203.582 84.5438 204.017 84.5438C205.031 84.5438 205.808 84.8603 206.349 85.4931C206.89 86.1259 207.161 87.0893 207.161 88.3841C207.161 88.442 207.161 88.5167 207.161 88.6086C207.161 88.7006 207.156 88.7849 207.146 88.8622H201.988C202.046 89.6449 202.273 90.2388 202.669 90.6445C203.065 91.0501 203.684 91.2535 204.524 91.2535C204.997 91.2535 205.396 91.2124 205.719 91.1302C206.043 91.048 206.287 90.9685 206.451 90.8911L206.639 92.0216C206.475 92.1081 206.187 92.2001 205.777 92.2969C205.366 92.3931 204.9 92.4419 204.379 92.4419C203.722 92.4419 203.155 92.3424 202.677 92.1444C202.199 91.9464 201.805 91.6738 201.496 91.326C201.187 90.9782 200.958 90.5649 200.808 90.0868C200.658 89.6087 200.583 89.0846 200.583 88.5144ZM205.755 87.775C205.765 87.1666 205.613 86.6668 205.299 86.2758C204.985 85.8842 204.552 85.6883 204.002 85.6883C203.693 85.6883 203.42 85.7489 203.184 85.8695C202.947 85.9908 202.746 86.1476 202.583 86.3407C202.418 86.5338 202.29 86.756 202.199 87.0076C202.107 87.2585 202.046 87.5144 202.018 87.775H205.755ZM210.521 91.2967C211.071 91.2967 211.48 91.2244 211.745 91.0794C212.011 90.9344 212.144 90.7023 212.144 90.3838C212.144 90.0555 212.013 89.7942 211.753 89.6011C211.491 89.408 211.062 89.1906 210.463 88.9494C210.173 88.833 209.896 88.7146 209.63 88.594C209.364 88.4734 209.135 88.3311 208.942 88.1666C208.749 88.0022 208.594 87.8043 208.478 87.5722C208.362 87.3407 208.304 87.0557 208.304 86.7177C208.304 86.0507 208.55 85.5217 209.043 85.1308C209.536 84.7397 210.207 84.5438 211.057 84.5438C211.269 84.5438 211.482 84.5558 211.694 84.58C211.907 84.6039 212.105 84.6331 212.289 84.6672C212.472 84.7007 212.634 84.737 212.774 84.7759C212.914 84.8143 213.022 84.8479 213.1 84.877L212.854 86.0361C212.709 85.9593 212.482 85.8793 212.172 85.797C211.864 85.7155 211.491 85.6743 211.057 85.6743C210.68 85.6743 210.352 85.7489 210.072 85.8988C209.792 86.0486 209.652 86.2828 209.652 86.6013C209.652 86.7658 209.683 86.9107 209.746 87.0363C209.809 87.1617 209.905 87.2753 210.036 87.377C210.166 87.4781 210.328 87.5722 210.521 87.6594C210.714 87.7464 210.946 87.8384 211.216 87.9347C211.574 88.0699 211.893 88.2029 212.172 88.3333C212.452 88.4637 212.692 88.6156 212.89 88.7897C213.088 88.9634 213.24 89.1738 213.346 89.4199C213.452 89.6665 213.505 89.9684 213.505 90.3259C213.505 91.0214 213.247 91.5478 212.73 91.9053C212.213 92.2628 211.477 92.4419 210.521 92.4419C209.855 92.4419 209.333 92.3862 208.956 92.2747C208.58 92.1638 208.323 92.0794 208.188 92.0216L208.435 90.8619C208.589 90.9198 208.835 91.0069 209.174 91.1226C209.512 91.2389 209.961 91.2967 210.521 91.2967Z" fill="white"></path><path d="M89.3739 54.965C90.975 54.965 92.1409 54.694 92.8709 54.1521C93.6009 53.6106 93.9659 52.8448 93.9659 51.8555C93.9659 51.267 93.842 50.7603 93.595 50.3367C93.3478 49.9126 92.9941 49.5297 92.5351 49.1884C92.076 48.8465 91.5168 48.5286 90.8571 48.2343C90.1979 47.9401 89.4441 47.6512 88.5968 47.3689C87.7488 47.0621 86.9307 46.7269 86.1417 46.3618C85.3528 45.9967 84.6579 45.5433 84.0576 45.0014C83.4569 44.4594 82.974 43.812 82.609 43.058C82.244 42.3046 82.0612 41.3975 82.0612 40.3374C82.0612 38.1235 82.8264 36.3862 84.3578 35.126C85.8886 33.8663 87.9727 33.2361 90.61 33.2361C92.1409 33.2361 93.5009 33.4065 94.69 33.7483C95.879 34.0896 96.8151 34.4607 97.4981 34.8614L96.1203 38.4648C95.32 38.0175 94.4429 37.6757 93.4889 37.4404C92.5351 37.2051 91.552 37.0872 90.5391 37.0872C89.3387 37.0872 88.4021 37.3344 87.731 37.8293C87.0599 38.3236 86.7247 39.0187 86.7247 39.9138C86.7247 40.4553 86.8366 40.9204 87.0599 41.3094C87.2838 41.6977 87.6018 42.0455 88.0138 42.3516C88.4258 42.6577 88.9088 42.9401 89.462 43.1997C90.0156 43.4589 90.6219 43.706 91.2811 43.9413C92.435 44.3653 93.4652 44.7953 94.372 45.2313C95.2783 45.6667 96.044 46.1848 96.668 46.7858C97.2921 47.3862 97.769 48.0931 98.0984 48.9055C98.4288 49.7179 98.5937 50.7018 98.5937 51.8555C98.5937 54.0699 97.8101 55.7834 96.2441 56.9966C94.6781 58.2093 92.388 58.8161 89.3739 58.8161C88.3609 58.8161 87.4369 58.7513 86.6008 58.622C85.7649 58.4922 85.0229 58.3332 84.3757 58.1449C83.7278 57.9561 83.1682 57.762 82.6971 57.5618C82.2262 57.3617 81.8492 57.1789 81.5669 57.0139L82.874 53.3749C83.5098 53.7281 84.3696 54.0818 85.4528 54.435C86.5359 54.7882 87.8429 54.965 89.3739 54.965ZM112.16 58.8161C110.323 58.8161 108.674 58.5332 107.214 57.9681C105.754 57.4028 104.518 56.5725 103.505 55.4772C102.493 54.382 101.715 53.0455 101.174 51.4672C100.632 49.8889 100.361 48.0752 100.361 46.0259C100.361 43.977 100.673 42.1628 101.297 40.5851C101.921 39.0068 102.775 37.6702 103.858 36.575C104.942 35.4797 106.213 34.6494 107.673 34.0836C109.133 33.5185 110.7 33.2361 112.372 33.2361C113.384 33.2361 114.303 33.3124 115.127 33.4654C115.951 33.6185 116.669 33.7894 117.282 33.9777C117.894 34.1664 118.4 34.3665 118.801 34.5785C119.201 34.7906 119.484 34.9436 119.648 35.0378L118.341 38.6768C117.776 38.3236 116.97 37.9883 115.922 37.6702C114.874 37.3522 113.738 37.1932 112.513 37.1932C111.453 37.1932 110.464 37.3755 109.546 37.7406C108.627 38.1057 107.832 38.6536 107.161 39.3838C106.49 40.114 105.966 41.0324 105.589 42.1396C105.212 43.2468 105.024 44.5303 105.024 45.9907C105.024 47.2862 105.171 48.4755 105.466 49.5589C105.76 50.6428 106.213 51.5791 106.826 52.3682C107.438 53.1569 108.215 53.7697 109.157 54.2051C110.099 54.6411 111.229 54.8591 112.548 54.8591C114.126 54.8591 115.41 54.7 116.399 54.382C117.388 54.064 118.153 53.7637 118.695 53.4808L119.896 57.1199C119.613 57.3087 119.23 57.4969 118.748 57.6857C118.265 57.8739 117.694 58.0562 117.034 58.233C116.375 58.4099 115.633 58.5511 114.809 58.6571C113.985 58.7632 113.102 58.8161 112.16 58.8161ZM139.635 58.8161C137.798 58.8161 136.15 58.5332 134.69 57.9681C133.229 57.4028 131.993 56.5725 130.981 55.4772C129.968 54.382 129.191 53.0455 128.649 51.4672C128.107 49.8889 127.836 48.0752 127.836 46.0259C127.836 43.977 128.149 42.1628 128.773 40.5851C129.397 39.0068 130.25 37.6702 131.334 36.575C132.417 35.4797 133.689 34.6494 135.149 34.0836C136.609 33.5185 138.175 33.2361 139.847 33.2361C140.859 33.2361 141.778 33.3124 142.602 33.4654C143.426 33.6185 144.145 33.7894 144.757 33.9777C145.369 34.1664 145.876 34.3665 146.276 34.5785C146.676 34.7906 146.959 34.9436 147.124 35.0378L145.817 38.6768C145.252 38.3236 144.445 37.9883 143.397 37.6702C142.349 37.3522 141.213 37.1932 139.988 37.1932C138.928 37.1932 137.939 37.3755 137.021 37.7406C136.103 38.1057 135.308 38.6536 134.636 39.3838C133.965 40.114 133.441 41.0324 133.065 42.1396C132.688 43.2468 132.499 44.5303 132.499 45.9907C132.499 47.2862 132.647 48.4755 132.941 49.5589C133.235 50.6428 133.689 51.5791 134.301 52.3682C134.913 53.1569 135.69 53.7697 136.632 54.2051C137.574 54.6411 138.705 54.8591 140.023 54.8591C141.601 54.8591 142.885 54.7 143.874 54.382C144.863 54.064 145.628 53.7637 146.17 53.4808L147.371 57.1199C147.089 57.3087 146.706 57.4969 146.223 57.6857C145.74 57.8739 145.169 58.0562 144.51 58.233C143.85 58.4099 143.109 58.5511 142.284 58.6571C141.46 58.7632 140.577 58.8161 139.635 58.8161ZM157.097 58.6393C155.825 58.616 154.772 58.4743 153.935 58.2152C153.1 57.9561 152.434 57.5851 151.94 57.1027C151.445 56.6196 151.098 56.0193 150.898 55.3004C150.698 54.5821 150.597 53.7637 150.597 52.8448V31.5756L154.872 30.8687V52.0323C154.872 52.5506 154.913 52.9865 154.995 53.3397C155.078 53.6929 155.225 53.993 155.437 54.2408C155.649 54.4879 155.937 54.6762 156.302 54.806C156.667 54.9353 157.132 55.0354 157.698 55.1062L157.097 58.6393ZM176.634 49.0294C176.634 50.4898 176.422 51.8203 175.998 53.0216C175.574 54.223 174.974 55.2474 174.197 56.0955C173.419 56.9437 172.483 57.603 171.388 58.074C170.293 58.5452 169.086 58.781 167.767 58.781C166.449 58.781 165.248 58.5452 164.164 58.074C163.081 57.603 162.151 56.9437 161.374 56.0955C160.597 55.2474 159.99 54.223 159.554 53.0216C159.119 51.8203 158.901 50.4898 158.901 49.0294C158.901 47.569 159.119 46.2438 159.554 45.0545C159.99 43.865 160.603 42.846 161.391 41.9984C162.18 41.1503 163.116 40.4964 164.2 40.0372C165.283 39.578 166.472 39.3481 167.767 39.3481C169.062 39.3481 170.257 39.578 171.352 40.0372C172.447 40.4964 173.384 41.1503 174.161 41.9984C174.938 42.846 175.545 43.865 175.98 45.0545C176.416 46.2438 176.634 47.569 176.634 49.0294ZM172.253 49.0294C172.253 47.192 171.859 45.7375 171.07 44.6655C170.281 43.594 169.18 43.058 167.767 43.058C166.354 43.058 165.254 43.594 164.465 44.6655C163.676 45.7375 163.281 47.192 163.281 49.0294C163.281 50.8901 163.676 52.3623 164.465 53.4457C165.254 54.5291 166.354 55.0711 167.767 55.0711C169.18 55.0711 170.281 54.5291 171.07 53.4457C171.859 52.3623 172.253 50.8901 172.253 49.0294ZM194.557 57.7208C193.733 57.9329 192.662 58.1508 191.343 58.3742C190.024 58.5981 188.576 58.7101 186.998 58.7101C185.514 58.7101 184.272 58.4981 183.271 58.074C182.27 57.65 181.47 57.0615 180.869 56.3076C180.269 55.5535 179.839 54.653 179.58 53.6047C179.321 52.5565 179.191 51.4082 179.191 50.1598V39.8078H183.466V49.4886C183.466 51.4672 183.754 52.8805 184.331 53.7281C184.908 54.5762 185.915 55.0003 187.351 55.0003C187.869 55.0003 188.417 54.9769 188.994 54.9293C189.571 54.8823 190.001 54.8233 190.283 54.753V39.8078H194.557V57.7208ZM201.295 48.9937C201.295 50.8781 201.743 52.3564 202.639 53.4279C203.533 54.4999 204.77 55.0354 206.347 55.0354C207.03 55.0354 207.613 55.0062 208.096 54.9472C208.579 54.8883 208.973 54.8233 209.279 54.753V44.1533C208.902 43.8942 208.402 43.653 207.778 43.4291C207.154 43.2051 206.489 43.0938 205.782 43.0938C204.228 43.0938 203.092 43.6233 202.373 44.6833C201.654 45.7435 201.295 47.1801 201.295 48.9937ZM213.553 57.7208C212.705 57.98 211.64 58.2152 210.356 58.4273C209.073 58.6393 207.725 58.7452 206.312 58.7452C204.852 58.7452 203.545 58.5213 202.39 58.074C201.237 57.6267 200.253 56.9847 199.441 56.1485C198.629 55.3123 198.005 54.2998 197.569 53.1098C197.133 51.9204 196.915 50.5838 196.915 49.0997C196.915 47.6393 197.098 46.3147 197.463 45.1253C197.828 43.9353 198.364 42.9168 199.07 42.0687C199.777 41.2206 200.636 40.5672 201.649 40.108C202.662 39.6488 203.828 39.4189 205.146 39.4189C206.041 39.4189 206.83 39.525 207.513 39.737C208.196 39.949 208.785 40.1843 209.279 40.4434V31.5756L213.553 30.8687V57.7208ZM222.386 55.2122C223.516 55.2122 224.341 55.077 224.859 54.806C225.377 54.535 225.636 54.0699 225.636 53.4106C225.636 52.7977 225.359 52.2915 224.806 51.8912C224.252 51.4904 223.34 51.055 222.068 50.5838C221.291 50.301 220.579 50.0008 219.931 49.6828C219.284 49.3647 218.724 48.9937 218.253 48.5696C217.782 48.1462 217.411 47.6333 217.14 47.033C216.87 46.4321 216.734 45.6965 216.734 44.8245C216.734 43.1289 217.358 41.7923 218.607 40.8145C219.855 39.837 221.55 39.3481 223.693 39.3481C224.776 39.3481 225.813 39.4482 226.802 39.6488C227.791 39.8489 228.532 40.0431 229.027 40.2314L228.25 43.6941C227.779 43.4821 227.179 43.2879 226.449 43.1111C225.718 42.9347 224.871 42.846 223.905 42.846C223.034 42.846 222.327 42.9931 221.786 43.2879C221.244 43.5821 220.973 44.0354 220.973 44.6482C220.973 44.9543 221.026 45.2253 221.132 45.4606C221.238 45.6965 221.421 45.9138 221.68 46.1145C221.939 46.3147 222.28 46.5148 222.704 46.715C223.128 46.915 223.646 47.1211 224.258 47.3331C225.271 47.7101 226.13 48.0813 226.837 48.4463C227.543 48.8114 228.126 49.2235 228.585 49.6828C229.045 50.142 229.38 50.6661 229.592 51.2552C229.804 51.8442 229.91 52.5506 229.91 53.3749C229.91 55.1413 229.257 56.4784 227.95 57.385C226.643 58.292 224.776 58.7452 222.351 58.7452C220.726 58.7452 219.419 58.6101 218.43 58.3391C217.441 58.0681 216.746 57.8501 216.346 57.6857L217.087 54.1169C217.723 54.376 218.483 54.6232 219.366 54.8591C220.249 55.0943 221.256 55.2122 222.386 55.2122Z" fill="white"></path></svg> 